<svg id="OBJECTS" xmlns="http://www.w3.org/2000/svg" xmlns:xlink="http://www.w3.org/1999/xlink" viewBox="0 0 500 500"><defs><style>.cls-1{fill:#f4f4f4;}.cls-2{fill:url(#Degradado_sin_nombre_7);}.cls-3{fill:#3878ff;}.cls-4{fill:#f76d59;}.cls-5{fill:#1f1f89;}.cls-6{fill:#f7f5ef;}.cls-7{fill:#8e574a;}.cls-8{fill:none;stroke:#0a5de2;stroke-linecap:round;stroke-miterlimit:10;stroke-width:2px;opacity:0.5;}.cls-9{fill:#afc6f5;}.cls-10{fill:#0a5de2;}.cls-11{fill:#2b159b;}.cls-12{opacity:0.4;}.cls-13{fill:#d64536;}.cls-14{fill:url(#Degradado_sin_nombre_7-2);}.cls-15{fill:#bcccfd;}.cls-16{fill:url(#Degradado_sin_nombre_4);}.cls-17{fill:#80392e;}</style><linearGradient id="Degradado_sin_nombre_7" x1="97.12" y1="385.82" x2="95.58" y2="412.64" gradientTransform="matrix(-1, 0, 0, 1, 183.99, 0)" gradientUnits="userSpaceOnUse"><stop offset="0" stop-color="#241084"/><stop offset="0.99" stop-color="#0a5de2"/></linearGradient><linearGradient id="Degradado_sin_nombre_7-2" x1="300.59" y1="253.37" x2="296.22" y2="280.26" gradientTransform="matrix(1, 0, 0, 1, 0, 0)" xlink:href="#Degradado_sin_nombre_7"/><linearGradient id="Degradado_sin_nombre_4" x1="406.51" y1="389.74" x2="397.93" y2="411.2" gradientUnits="userSpaceOnUse"><stop offset="0" stop-color="#241084" stop-opacity="0.8"/><stop offset="0.99" stop-color="#0a5de2" stop-opacity="0"/></linearGradient></defs><title>Mesa de trabajo 1</title><polygon class="cls-1" points="94.63 332.01 93.54 341.27 87.02 358.21 92.98 360.05 97.57 342.38 98.17 332.42 94.63 332.01"/><polygon class="cls-2" points="80.69 376.8 83.6 406.28 82.63 432.19 92.67 432.19 93.21 430.26 86.33 429.35 90 406.4 93.31 377.87 80.69 376.8"/><polygon class="cls-3" points="77.37 376.47 75.09 401.58 59.71 422 61.55 431.64 66.14 431.64 63.38 429.58 62.92 423.38 77.61 406.86 90.92 377.26 77.37 376.47"/><polygon class="cls-4" points="98.17 332.42 97.99 323.08 96.12 322.85 94.63 332.01 98.17 332.42"/><path class="cls-4" d="M79.92,345.36c-.7,3.39-.73,8.58,4.36,9.4A7.4,7.4,0,0,0,93.13,349c.74-3.38-.51-7.74-5.74-8.41C84,340.12,80.47,342.64,79.92,345.36Z"/><path class="cls-5" d="M83.58,354.53c-3.64-1-5-4.49-4.49-8a7.12,7.12,0,0,1,8.3-5.93,4.36,4.36,0,0,1,.58.19,3.33,3.33,0,0,1-.11,1.49,5.9,5.9,0,0,1-3.77,3.59S83,353.43,83.58,354.53Z"/><path class="cls-4" d="M83.16,346.42a2.42,2.42,0,0,0-1.51.3c-1.47.8-1,3,.35,3.71a3.78,3.78,0,0,0,1.37.38,2,2,0,0,0,1.2-.19,1.49,1.49,0,0,0,.63-1,2.82,2.82,0,0,0-.06-1.19A2.73,2.73,0,0,0,83.16,346.42Z"/><path class="cls-6" d="M88.74,344.36a1.88,1.88,0,1,0,.85-2.87A2.16,2.16,0,0,0,88.74,344.36Z"/><path class="cls-7" d="M95.06,321.79a2.11,2.11,0,1,0,2.11-2.11A2.11,2.11,0,0,0,95.06,321.79Z"/><path class="cls-6" d="M105,336l-3.2,1.06a25.52,25.52,0,0,1-6.35,10l-6,5.83-7.38,5-5.49,20.36,17.17,1.62.56-22.43,6.38-8a25.59,25.59,0,0,0,5.16-11.27Z"/><rect class="cls-6" x="81.79" y="285.21" width="38.73" height="38.73" rx="7.4" ry="7.4"/><path class="cls-4" d="M105.61,323.2a2.12,2.12,0,1,0,2.11-2.11A2.12,2.12,0,0,0,105.61,323.2Z"/><polygon class="cls-4" points="101.44 338.14 105.66 339.64 109.06 324.17 106.64 323.62 101.44 338.14"/><path class="cls-4" d="M110.54,299.74c0,5.42-9.82,19.82-9.82,19.82s-9.83-14.4-9.83-19.82a9.83,9.83,0,1,1,19.65,0Z"/><path class="cls-6" d="M105.42,298.92a4.71,4.71,0,1,1-4.7-4.71A4.69,4.69,0,0,1,105.42,298.92Z"/><line class="cls-8" x1="51.44" y1="432" x2="127.43" y2="432"/><rect class="cls-6" x="196.86" y="145" width="101.16" height="218" rx="8.59" ry="8.59"/><path class="cls-5" d="M289.42,145h-84a8.59,8.59,0,0,0-8.58,8.59v8.7H298v-8.7A8.59,8.59,0,0,0,289.42,145Z"/><path class="cls-5" d="M196.86,343.46v11a8.58,8.58,0,0,0,8.58,8.59h84a8.58,8.58,0,0,0,8.59-8.59v-11Z"/><rect class="cls-4" x="250.79" y="168.21" width="38.73" height="38.73" rx="7.4" ry="7.4"/><rect class="cls-9" x="250.79" y="285.73" width="38.73" height="38.73" rx="7.4" ry="7.4"/><rect class="cls-4" x="205.05" y="285.73" width="38.73" height="38.73" rx="7.4" ry="7.4"/><line class="cls-8" x1="196.45" y1="363.99" x2="305.45" y2="363.99"/><rect class="cls-5" x="329.4" y="287.77" width="1" height="80.98" transform="translate(-49.36 58.53) rotate(-9.44)"/><rect class="cls-5" x="305.02" y="287.77" width="1" height="80.98" transform="translate(-49.69 54.54) rotate(-9.44)"/><rect class="cls-5" x="301.71" y="304.79" width="24.6" height="1"/><rect class="cls-5" x="303.45" y="315.46" width="24.6" height="1"/><rect class="cls-5" x="305.19" y="326.12" width="24.6" height="1"/><rect class="cls-5" x="306.93" y="336.79" width="24.6" height="1"/><rect class="cls-5" x="308.67" y="347.46" width="24.6" height="1"/><rect class="cls-5" x="310.41" y="358.12" width="24.6" height="1"/><rect class="cls-3" x="251.02" y="327.76" width="80.98" height="1" transform="translate(-80.13 561.96) rotate(-80.56)"/><rect class="cls-3" x="275.4" y="327.76" width="80.98" height="1" transform="translate(-59.76 585.99) rotate(-80.55)"/><rect class="cls-3" x="295.11" y="304.79" width="24.6" height="1"/><rect class="cls-3" x="293.37" y="315.46" width="24.6" height="1"/><rect class="cls-3" x="291.62" y="326.12" width="24.6" height="1"/><rect class="cls-3" x="289.88" y="336.79" width="24.6" height="1"/><rect class="cls-3" x="288.14" y="347.46" width="24.6" height="1"/><rect class="cls-3" x="286.4" y="358.12" width="24.6" height="1"/><rect class="cls-10" x="296.17" y="287.07" width="30" height="3"/><polygon class="cls-6" points="352.35 273.6 349.42 243.39 345.64 211.08 348.58 210.66 355.29 241.29 365.78 242.13 376.69 211.08 379.62 211.5 371.65 244.65 372.07 272.76 352.35 273.6"/><path class="cls-4" d="M356.09,232.33c-.8,2.89.45,7.54,3.35,8.33s6.34-2.57,7.13-5.46a5.43,5.43,0,1,0-10.48-2.87Z"/><path class="cls-11" d="M360,230.65a3,3,0,0,1-1.74-1.12.94.94,0,0,1-.06-.15,5.41,5.41,0,0,1,8.41,5.82,8.63,8.63,0,0,1-4.59,5.22,9.43,9.43,0,0,1,.33-1.73q.9-3.44,2-6.81A27.29,27.29,0,0,1,360,230.65Z"/><path class="cls-4" d="M363.34,235.08a1.41,1.41,0,0,1,1.38-.22.84.84,0,0,1,.28.18,1.08,1.08,0,0,1,.25.85,2.19,2.19,0,0,1-1.57,1.8,1.56,1.56,0,0,1-.71.07.89.89,0,0,1-.6-.35C361.86,236.69,362.78,235.49,363.34,235.08Z"/><polygon class="cls-3" points="372.07 272.76 369.16 319.09 365.96 319.09 363.23 273.13 360.37 273.25 358.62 320.22 356.15 320.16 352.35 273.6 351.8 267.86 372 268.12 372.07 272.76"/><polygon class="cls-3" points="369.16 319.09 376.21 319.86 375.95 320.96 365.63 320.96 365.96 319.09 369.16 319.09"/><polygon class="cls-3" points="358.62 320.22 358.62 321.54 348.94 321.9 348.94 320.69 356.15 320.16 358.62 320.22"/><path class="cls-11" d="M361.28,236.25c-1.76.19-3.16-1.58-4.92-1.81a.61.61,0,0,0-.33,0,.63.63,0,0,0-.27.33c-.22.43-.45.86-.67,1.3a5.34,5.34,0,0,0-.56,1.38,4.85,4.85,0,0,0,.06,1.78,4.51,4.51,0,0,0,.38,1.36,3.35,3.35,0,0,0,1.89,1.61,5.87,5.87,0,0,0,2.5.26,4.62,4.62,0,0,0,1.67-.42,3.15,3.15,0,0,0,1.64-3.19,3.31,3.31,0,0,1-.11-.94,2.14,2.14,0,0,1,.34-.85c.17-.31,1.33-1.83.42-1.84-.28,0-.68.47-.92.61A2.78,2.78,0,0,1,361.28,236.25Z"/><g class="cls-12"><polygon class="cls-9" points="372.93 221.78 377.15 221.78 379.62 211.5 376.69 211.08 372.93 221.78"/><polygon class="cls-9" points="348.58 210.66 345.64 211.08 346.89 221.78 351.01 221.78 348.58 210.66"/></g><rect class="cls-3" x="313.82" y="178" width="115.19" height="31.94" rx="8.69" ry="8.69"/><rect class="cls-6" x="310.94" y="178" width="115.19" height="31.94" rx="8.69" ry="8.69"/><path class="cls-9" d="M418.84,202.56l-4.7-4.88a8,8,0,1,0-6.1,2.84,7.85,7.85,0,0,0,4.57-1.44l4.73,4.92a1,1,0,0,0,.75.32,1,1,0,0,0,.72-.29,1.05,1.05,0,0,0,0-1.47ZM408,186.67a5.89,5.89,0,1,1-5.88,5.89,5.89,5.89,0,0,1,5.88-5.89Zm0,0"/><line class="cls-8" x1="320.43" y1="322" x2="424.43" y2="322"/><path class="cls-4" d="M349.26,209.4a2.52,2.52,0,1,1-2.52-2.51A2.52,2.52,0,0,1,349.26,209.4Z"/><path class="cls-4" d="M379.65,210.12a2.52,2.52,0,1,1-2.52-2.52A2.51,2.51,0,0,1,379.65,210.12Z"/><path class="cls-9" d="M256.91,217.52a2.75,2.75,0,1,1-3.55-1.59A2.74,2.74,0,0,1,256.91,217.52Z"/><rect class="cls-3" x="214.09" y="203.15" width="38.73" height="38.73" rx="7.4" ry="7.4" transform="translate(-26.08 413.98) rotate(-80.04)"/><path class="cls-3" d="M134.52,339.16h17.33a1,1,0,0,0,.74-1.68l-16.67-18-1.47,1.36,15.12,16.32h-15Z"/><polygon class="cls-13" points="256.28 217.81 263.72 220.72 285.36 222.77 278.14 227.86 262.94 224.21 255.16 220.65 256.28 217.81"/><path class="cls-9" d="M282.42,214.53a6.07,6.07,0,1,1-7.83-3.5A6.07,6.07,0,0,1,282.42,214.53Z"/><polygon class="cls-14" points="305.14 239.62 302.64 264.87 303.47 287.06 294.87 287.06 294.41 285.41 300.31 284.62 297.16 264.97 294.32 240.53 305.14 239.62"/><path class="cls-4" d="M252.82,220.43c3.17,1.29,13.81,4.12,17.22,3.85l7.15-.58,7.38-1.95,16.21,7.95-8.64,12-14.77-12.29-8.73-.39c-3.59-.16-13.78-4-16.87-5.87Z"/><path class="cls-5" d="M283.36,213c-1.27-2.86-6.34-3.55-9.17-2.22-.17.08-.31.19-.47.28a3.1,3.1,0,0,0,.4,1.3,5.34,5.34,0,0,0,4,2.39l.3.8a1.64,1.64,0,0,1,.64-.48,2.17,2.17,0,0,1,1.38,0c1.45.41,1.45,2.46.44,3.33a3.22,3.22,0,0,1-1.12.61l-.16,0c-.13,2,0,2.19.42,2.8C282.36,220.1,285,216.75,283.36,213Z"/><polygon class="cls-3" points="331.61 236.27 317.1 242.59 300.39 229.75 291.82 241.5 317.09 249.26 332.05 239.23 335.23 242.78 336.3 241.74 331.61 236.27"/><path class="cls-9" d="M253.71,220.34a2.75,2.75,0,1,1-3.55-1.59A2.75,2.75,0,0,1,253.71,220.34Z"/><path class="cls-3" d="M133.63,150.59h19.56V347.26H133.63Zm17.56,2H135.63V345.26h15.56Z"/><rect class="cls-6" x="130.95" y="336.73" width="24.92" height="17.86" transform="translate(286.82 691.32) rotate(180)"/><path class="cls-3" d="M134.52,265.25h17.33a1,1,0,0,0,.74-1.68l-16.67-18-1.47,1.36,15.12,16.32h-15Z"/><path class="cls-3" d="M134.52,283.73h17.33a1,1,0,0,0,.92-.6,1,1,0,0,0-.18-1.08l-16.67-18-1.47,1.36,15.12,16.32h-15Z"/><path class="cls-3" d="M134.52,302.21h17.33a1,1,0,0,0,.92-.6,1,1,0,0,0-.18-1.08l-16.67-18-1.47,1.36,15.12,16.32h-15Z"/><path class="cls-3" d="M134.52,320.68h17.33a1,1,0,0,0,.74-1.68l-16.67-18-1.47,1.35,15.12,16.32h-15Z"/><path class="cls-3" d="M134.52,247.22h17.33a1,1,0,0,0,.92-.6,1,1,0,0,0-.18-1.08l-16.67-18-1.47,1.36,15.12,16.32h-15Z"/><path class="cls-3" d="M134.52,229.15h17.33a1,1,0,0,0,.92-.6,1,1,0,0,0-.18-1.08l-16.67-18-1.47,1.36,15.12,16.32h-15Z"/><path class="cls-3" d="M134.52,211.12h17.33a1,1,0,0,0,.92-.6,1,1,0,0,0-.18-1.08l-16.67-18-1.47,1.36,15.12,16.32h-15Z"/><path class="cls-3" d="M134.52,193.08h17.33a1,1,0,0,0,.74-1.68l-16.67-18-1.47,1.36,15.12,16.32h-15Z"/><path class="cls-3" d="M134.52,175.05h17.33a1,1,0,0,0,.92-.6,1,1,0,0,0-.18-1.08l-16.67-18-1.47,1.36,15.12,16.32h-15Z"/><path class="cls-3" d="M134.52,157h17.33a1,1,0,0,0,.74-1.68l-16.67-18-1.47,1.36L149.57,155h-15Z"/><rect class="cls-5" x="133.66" y="130.63" width="31.72" height="26.74" transform="translate(299.04 288) rotate(180)"/><rect class="cls-5" x="85.99" y="130.63" width="31.72" height="15.36" transform="translate(203.71 276.62) rotate(180)"/><path class="cls-3" d="M86.52,132.59H243.19a1,1,0,0,0,0-2H86.52a1,1,0,0,0,0,2Z"/><rect class="cls-3" x="234.91" y="136.25" width="1" height="65"/><rect class="cls-3" x="122.45" y="351.4" width="41.92" height="7.86" transform="translate(286.82 710.65) rotate(180)"/><path class="cls-3" d="M149.4,132.32a.54.54,0,0,0,.36-.14l8.35-8.36H234.7l7.85,7.86a.5.5,0,0,0,.71-.71l-8.15-8.15H157.7l-8.65,8.65a.5.5,0,0,0,0,.71A.54.54,0,0,0,149.4,132.32Z"/><path class="cls-3" d="M85.85,132.32a.5.5,0,0,0,.45-.26l8.36-16h20.27l7.86,15.46a.5.5,0,0,0,.67.22.49.49,0,0,0,.22-.67l-8.14-16H94.05l-8.64,16.5a.49.49,0,0,0,.44.73Z"/><path class="cls-6" d="M231.74,136.25a3.67,3.67,0,1,0,3.67-3.66A3.67,3.67,0,0,0,231.74,136.25Z"/><path class="cls-3" d="M213.73,123.82a.51.51,0,0,0,.48-.36.5.5,0,0,0-.33-.62l-74-22.58a.57.57,0,0,0-.34,0l-35.09,14.81a.5.5,0,0,0-.26.66.5.5,0,0,0,.65.26l34.92-14.74,73.86,22.52A.4.4,0,0,0,213.73,123.82Z"/><path class="cls-3" d="M151.34,132.39a.92.92,0,0,0,.36-.07,1,1,0,0,0,.58-1.29l-11.66-30.67a1,1,0,0,0-1.91.16l-6,29.91a1,1,0,1,0,2,.4L140,104.31l10.43,27.44A1,1,0,0,0,151.34,132.39Z"/><path class="cls-15" d="M137.67,100.72a2,2,0,1,0,2-2A2,2,0,0,0,137.67,100.72Z"/><path class="cls-3" d="M224.27,132.42a.56.56,0,0,0,.32-.11l9.81-7.94v7.42a.5.5,0,0,0,.5.5.5.5,0,0,0,.5-.5v-8.47a.5.5,0,0,0-.81-.39L224,131.53a.5.5,0,0,0,.31.89Z"/><path class="cls-3" d="M214.78,132.42a.51.51,0,0,0,.31-.11l9.82-7.94v7.42a.5.5,0,0,0,1,0v-8.47a.5.5,0,0,0-.29-.45.49.49,0,0,0-.52.06l-10.64,8.6a.49.49,0,0,0-.07.7A.48.48,0,0,0,214.78,132.42Z"/><path class="cls-3" d="M205.28,132.42a.51.51,0,0,0,.31-.11l9.82-7.94v7.42a.5.5,0,0,0,.5.5.5.5,0,0,0,.5-.5v-8.47a.5.5,0,0,0-.81-.39L205,131.53a.5.5,0,0,0-.08.7A.48.48,0,0,0,205.28,132.42Z"/><path class="cls-3" d="M195.78,132.42a.52.52,0,0,0,.32-.11l9.82-7.94v7.42a.5.5,0,0,0,.5.5.5.5,0,0,0,.5-.5v-8.47a.5.5,0,0,0-.29-.45.51.51,0,0,0-.53.06l-10.63,8.6a.49.49,0,0,0-.07.7A.46.46,0,0,0,195.78,132.42Z"/><path class="cls-3" d="M186.29,132.42a.51.51,0,0,0,.31-.11l9.82-7.94v7.42a.5.5,0,0,0,.5.5.5.5,0,0,0,.5-.5v-8.47a.5.5,0,0,0-.81-.39L186,131.53a.5.5,0,0,0-.07.7A.48.48,0,0,0,186.29,132.42Z"/><path class="cls-3" d="M176.79,132.42a.54.54,0,0,0,.32-.11l9.82-7.94v7.42a.5.5,0,0,0,.5.5.5.5,0,0,0,.5-.5v-8.47a.5.5,0,0,0-.29-.45.51.51,0,0,0-.53.06l-10.63,8.6a.5.5,0,0,0,.31.89Z"/><path class="cls-3" d="M167.3,132.42a.51.51,0,0,0,.31-.11l9.82-7.94v7.42a.5.5,0,0,0,.5.5.5.5,0,0,0,.5-.5v-8.47a.5.5,0,0,0-.81-.39L167,131.53a.5.5,0,0,0-.07.7A.48.48,0,0,0,167.3,132.42Z"/><path class="cls-3" d="M157.8,132.42a.56.56,0,0,0,.32-.11l9.82-7.94v7.42a.5.5,0,0,0,.5.5.5.5,0,0,0,.5-.5v-8.47a.5.5,0,0,0-.29-.45.51.51,0,0,0-.53.06l-10.63,8.6a.5.5,0,0,0,.31.89Z"/><path class="cls-3" d="M101.67,132.42a.49.49,0,0,0,.38-.18l12.75-15.05v14.6a.5.5,0,0,0,.5.5.5.5,0,0,0,.5-.5v-16a.5.5,0,0,0-.32-.47.5.5,0,0,0-.56.14l-13.63,16.1a.49.49,0,0,0,.06.7A.47.47,0,0,0,101.67,132.42Z"/><path class="cls-3" d="M91.86,132.42a.51.51,0,0,0,.42-.23l9.71-14.7v14.3a.5.5,0,0,0,.5.5.5.5,0,0,0,.5-.5v-16a.5.5,0,0,0-.35-.48.5.5,0,0,0-.56.2L91.44,131.64a.51.51,0,0,0,.14.7A.6.6,0,0,0,91.86,132.42Z"/><path class="cls-5" d="M232.26,202.59a3.15,3.15,0,1,0,3.15-3.15A3.15,3.15,0,0,0,232.26,202.59Z"/><line class="cls-8" x1="104.44" y1="360" x2="180.43" y2="360"/><polygon class="cls-4" points="420.79 392.33 419.66 376.66 421.41 365.12 427.37 331.11 424.49 330.7 417.92 360.69 407.64 361.52 396.96 331.11 394.08 331.52 401.89 363.98 404.63 376.39 404.31 391.51 420.79 392.33"/><polygon class="cls-5" points="406.64 350.42 405.63 359.39 411.73 359.87 415.46 350.42 406.64 350.42"/><path class="cls-6" d="M417.89,353.71a6.16,6.16,0,1,1-6.16-6.16A6.16,6.16,0,0,1,417.89,353.71Z"/><rect class="cls-10" x="391.79" y="293.21" width="38.73" height="38.73" rx="7.4" ry="7.4"/><path class="cls-5" d="M414,353.3a.49.49,0,0,0,.39.06c.12,0,.19-.18.27-.28A1,1,0,0,1,416,353a1.25,1.25,0,0,1,.15,1.46,1.76,1.76,0,0,1-1.28.82,12,12,0,0,0-.42,3.76l2.54.19a.71.71,0,0,0,.48-.08.76.76,0,0,0,.2-.41,21.23,21.23,0,0,0,.47-4.43,8.15,8.15,0,0,0-.92-4.19c-.9-1.48-4.57-3.92-6.36-2.55C408.93,349.11,412.63,352.64,414,353.3Z"/><path class="cls-5" d="M408.89,351.18A6.06,6.06,0,0,1,405,353a5.48,5.48,0,0,1,1.89-4.33c.69-.6,3-1.92,4-1.28S409.59,350.49,408.89,351.18Z"/><polygon class="cls-10" points="420.19 381.21 404.48 380.48 392.39 434.63 386.78 431.21 393.61 439.5 409.71 394.87 409.46 415.12 420.38 429.58 421.07 434.8 421.36 437.02 423.31 436.79 423.66 428.83 415.21 415.09 421.18 392.35 420.19 381.21"/><polygon class="cls-6" points="421.19 345.78 424.59 346.97 427.37 331.11 424.49 330.7 421.19 345.78"/><polygon class="cls-6" points="401.37 343.66 397.38 345.24 394.08 331.52 396.96 331.11 401.37 343.66"/><polygon class="cls-6" points="414.7 360.95 411.75 366.19 410.27 361.31 414.7 360.95"/><path class="cls-6" d="M392.8,329.47a2.47,2.47,0,1,0,2.46-2.47A2.46,2.46,0,0,0,392.8,329.47Z"/><path class="cls-6" d="M423.75,329.93a2.47,2.47,0,1,0,2.46-2.47A2.46,2.46,0,0,0,423.75,329.93Z"/><path class="cls-16" d="M405.28,407.15l3.8-10.53.35-3.34-4.95-12.8L399.23,404C401.48,405.2,403.67,406.33,405.28,407.15Z"/><path class="cls-6" d="M416.14,306a5.07,5.07,0,1,1-5.07-5.07A5.07,5.07,0,0,1,416.14,306Z"/><path class="cls-6" d="M421,321.36a9.71,9.71,0,0,0-19.42,0Z"/><line class="cls-8" x1="372.57" y1="438.5" x2="448.56" y2="438.5"/><line class="cls-8" x1="270.57" y1="368" x2="346.56" y2="368"/><rect class="cls-10" x="160.79" y="244.21" width="38.73" height="38.73" rx="7.4" ry="7.4"/><polygon class="cls-6" points="170.07 345.8 167.15 315.8 163.4 283.72 166.32 283.31 172.98 313.72 183.4 314.55 194.23 283.72 197.15 284.14 189.23 317.05 189.65 344.97 170.07 345.8"/><path class="cls-4" d="M168,282.06a2.5,2.5,0,1,1-2.5-2.5A2.5,2.5,0,0,1,168,282.06Z"/><path class="cls-4" d="M197.15,282.89a2.5,2.5,0,1,1-2.5-2.5A2.5,2.5,0,0,1,197.15,282.89Z"/><path class="cls-4" d="M184.79,304.6a6.36,6.36,0,1,1-6.36-6.35A6.36,6.36,0,0,1,184.79,304.6Z"/><path class="cls-5" d="M184.79,305.61a6.36,6.36,0,1,1-6.36-6.36A6.35,6.35,0,0,1,184.79,305.61Z"/><polygon class="cls-3" points="189.65 344.97 186.76 390.98 183.57 390.98 180.87 345.34 178.03 345.46 176.29 392.11 173.84 392.05 170.07 345.8 169.51 340.1 189.58 340.37 189.65 344.97"/><polygon class="cls-3" points="186.76 390.98 193.76 391.75 193.5 392.83 183.25 392.83 183.57 390.98 186.76 390.98"/><polygon class="cls-3" points="176.29 392.11 176.29 393.41 166.68 393.77 166.68 392.57 173.84 392.05 176.29 392.11"/><line class="cls-8" x1="155.57" y1="393.5" x2="211.56" y2="393.5"/><path class="cls-17" d="M264.86,404.54a.58.58,0,0,1,0,.23s0,0,0,.06a1.42,1.42,0,0,1-.08.18s0,0,0,0a1.37,1.37,0,0,1-.15.21l0,.05a1.84,1.84,0,0,1-.2.19l0,0a3.39,3.39,0,0,1-.28.2l-.08,0a2.2,2.2,0,0,1-.26.15l-.11.06-.3.15-.13.05a4.77,4.77,0,0,1-.5.19l-17,5.91-.51.14c-.25.07-.5.15-.77.21s-.66.13-1,.18-.43.06-.64.09l-.81.08h-.17c-.44,0-.88.05-1.32.05h0c-.47,0-.93,0-1.39,0h0c-.45,0-.9-.07-1.34-.13h0c-.43-.06-.84-.14-1.24-.22h0a11.78,11.78,0,0,1-1.14-.32l-16.79-5.75-.26-.1-.24-.09-.22-.1-.21-.1-.18-.1-.19-.11-.14-.11-.15-.12a.63.63,0,0,1-.12-.11l-.12-.11a1.3,1.3,0,0,1-.1-.15.47.47,0,0,1-.06-.09.31.31,0,0,1-.05-.12,1,1,0,0,1-.09-.36l.06,7.51a1,1,0,0,0,.09.36.31.31,0,0,0,0,.12.47.47,0,0,0,.06.09l.1.15.1.09a.92.92,0,0,0,.14.14l.11.08.19.14.14.08.22.13.15.07.28.13.2.08.29.11h0l16.79,5.75a5.76,5.76,0,0,0,.59.18l.52.13h.07l.4.08.46.08.38.06h.07l.44.05.45,0,.41,0h0l.46,0H241l.57,0h.21l.17,0,.31,0,.5-.06.64-.08.19,0c.25,0,.49-.08.73-.14l.09,0c.27-.06.52-.14.77-.21l.41-.11.1,0,17-5.9c.17-.06.33-.12.48-.19h0l.13-.06.25-.12.05,0,.11-.05.15-.09.11-.06.09-.06,0,0,.21-.15h0l0,0,.12-.12a.23.23,0,0,0,.07-.07l0-.05,0,0,.11-.16v0s0,0,0,0l.05-.1,0-.08s0,0,0-.06a0,0,0,0,0,0,0,.55.55,0,0,0,0-.18h0Z"/><path class="cls-4" d="M262.74,402.78c2.87,1,2.83,2.6-.09,3.6l-17,5.91a18.79,18.79,0,0,1-10.46,0l-16.79-5.75c-2.87-1-2.84-2.6.07-3.6l17.06-5.9A18.74,18.74,0,0,1,246,397Z"/><path class="cls-5" d="M331,398.11a1.66,1.66,0,0,1,0,.22.14.14,0,0,0,0,.06,1.42,1.42,0,0,1-.08.18.05.05,0,0,1,0,0,1.37,1.37,0,0,1-.15.21l0,.05-.19.19,0,0a3.16,3.16,0,0,1-.27.2l-.09.06-.26.15-.1.05-.31.15-.13.06-.49.19-17.05,5.9-.52.14c-.25.08-.5.15-.77.21l-1,.19-.64.08-.81.08-.17,0c-.44,0-.88,0-1.32.05h0c-.47,0-.93,0-1.39,0h0c-.46,0-.91-.07-1.35-.13h0c-.43-.06-.84-.13-1.24-.22h0a11.78,11.78,0,0,1-1.14-.32l-16.79-5.75-.26-.1L284,400l-.22-.1-.21-.1-.17-.1a1.6,1.6,0,0,1-.19-.11l-.14-.11a1.11,1.11,0,0,1-.16-.11l-.12-.12-.12-.11a1.3,1.3,0,0,1-.1-.15.47.47,0,0,1-.06-.09.61.61,0,0,1,0-.12,1,1,0,0,1-.09-.36l.06,7.51a1,1,0,0,0,.09.37l0,.11a.47.47,0,0,0,.06.09,1.3,1.3,0,0,0,.1.15l.1.09.14.14.11.08.19.14.14.08.22.13.15.07.28.13.2.08.3.11h0l16.79,5.75a5.76,5.76,0,0,0,.59.18l.52.13h.07l.4.08.46.08.38.06h.07l.44.05.45,0,.42,0h0l.46,0h1.48l.57,0h.21l.17,0,.31,0c.17,0,.33,0,.5-.06l.64-.08.19,0,.73-.13.09,0c.27-.06.52-.13.78-.21s.27-.06.4-.11l.11,0,17.05-5.9.47-.18h0l.13-.06.25-.12.06,0,.1-.06.15-.08.11-.07.09-.06.05,0,.21-.16h0l0,0,.13-.11.06-.08,0,0,0,0a.91.91,0,0,0,.11-.16v0a.05.05,0,0,0,0,0,.47.47,0,0,0,.05-.1l0-.08a.14.14,0,0,1,0-.06,0,0,0,0,1,0,0,1.1,1.1,0,0,0,0-.18h0Z"/><path class="cls-3" d="M328.84,396.34c2.87,1,2.83,2.6-.08,3.61l-17.05,5.9a18.83,18.83,0,0,1-10.47,0l-16.79-5.75c-2.86-1-2.84-2.6.08-3.6l17.05-5.9a18.74,18.74,0,0,1,10.47-.05Z"/></svg>